<svg version="1.1" id="Layer_1" xmlns="http://www.w3.org/2000/svg" xmlns:xlink="http://www.w3.org/1999/xlink" x="0px" y="0px" width="58" height="58" viewBox="0 0 595.275 595.275" enable-background="new 0 0 595.275 595.275" xml:space="preserve"><path id="color_x5F_2" fill="#535454" d="M403.782,186.781c-44.329,0-83.381,22.837-106.144,57.329    c-22.764-34.492-61.816-57.329-106.145-57.329c-70.109,0-127.145,57.035-127.145,127.145c0,70.107,57.035,127.143,127.145,127.143    c44.329,0,83.381-22.837,106.145-57.329c22.763,34.492,61.814,57.329,106.144,57.329c70.11,0,127.146-57.035,127.146-127.143    C530.928,243.816,473.893,186.781,403.782,186.781z M191.494,399.07c-46.951,0-85.146-38.193-85.146-85.145    c0-46.952,38.194-85.146,85.146-85.146c46.951,0,85.145,38.194,85.145,85.146C276.639,360.877,238.444,399.07,191.494,399.07z     M403.782,399.07c-46.95,0-85.145-38.193-85.145-85.145c0-46.952,38.194-85.146,85.145-85.146c46.952,0,85.147,38.194,85.147,85.146    C488.93,360.877,450.734,399.07,403.782,399.07z"></path><path id="color_x5F_1" fill="#A7CA64" d="M66.399,291.851c0-56.089,0-124.044,0-157.519c0-10.274,10.051-17.459,19.772-14.137    c32.962,11.263,100.432,35.966,150.368,65.096c-23.217-21.647-57.018-46.296-105.931-70.127c-6.516-3.173-9.229-11.028-6.05-17.544    c3.173-6.505,11.022-9.223,17.544-6.05c94.933,46.251,137.361,96.091,155.537,125.699c18.176-29.608,60.602-79.448,155.535-125.699    c6.537-3.173,14.376-0.455,17.544,6.05c3.18,6.516,0.468,14.371-6.05,17.544c-48.439,23.601-81.965,47.786-105.104,69.084    c49.854-28.739,116.803-53.028,149.573-64.124c9.715-3.29,19.74,3.938,19.74,14.195v157.531    c-10.497-59.604-62.527-105.07-125.096-105.07c-44.329,0-83.381,22.837-106.144,57.329c-22.764-34.492-61.816-57.329-106.145-57.329    C128.926,186.781,76.896,232.247,66.399,291.851z M403.782,441.068c-44.329,0-83.381-22.837-106.144-57.329    c-22.764,34.492-61.816,57.329-106.145,57.329c-8.474,0-16.744-0.871-24.759-2.46l101.319,58.495    c18.307,10.57,40.864,10.57,59.172,0l101.316-58.495C420.527,440.197,412.257,441.068,403.782,441.068z M252.902,313.927    c0,33.915-27.493,61.407-61.408,61.407c-33.914,0-61.407-27.492-61.407-61.407s27.493-61.407,61.407-61.407    C225.41,252.52,252.902,280.012,252.902,313.927z M201.85,297.87c0-14.292-11.585-25.875-25.875-25.875    s-25.874,11.583-25.874,25.875c0,14.289,11.584,25.874,25.874,25.874S201.85,312.159,201.85,297.87z M465.19,313.927    c0,33.915-27.493,61.407-61.408,61.407s-61.407-27.492-61.407-61.407s27.492-61.407,61.407-61.407S465.19,280.012,465.19,313.927z     M414.139,297.87c0-14.292-11.584-25.875-25.876-25.875c-14.289,0-25.874,11.583-25.874,25.875    c0,14.289,11.585,25.874,25.874,25.874C402.555,323.744,414.139,312.159,414.139,297.87z"></path></svg>